<?xml version="1.0" encoding="iso-8859-1"?>
<!-- Uploaded to: SVG Repo, www.svgrepo.com, Generator: SVG Repo Mixer Tools -->
<!DOCTYPE svg PUBLIC "-//W3C//DTD SVG 1.1//EN" "http://www.w3.org/Graphics/SVG/1.1/DTD/svg11.dtd">
<svg fill="#000000" height="800px" width="800px" version="1.1" id="Capa_1" xmlns="http://www.w3.org/2000/svg" xmlns:xlink="http://www.w3.org/1999/xlink" 
	 viewBox="0 0 279.223 279.223" xml:space="preserve">
<g>
	<path d="M264.386,61.764L64.02,33.363c-9.415-1.324-18.144,5.01-19.482,14.455l-4.689,34.217H17.337
		C7.837,82.035,0,90.215,0,99.714v129.228c0,9.499,7.837,17.094,17.337,17.094h228.329c9.499,0,17.334-7.595,17.334-17.094v-32.593
		c0-0.308,0.103-0.62,0.148-0.944L279.052,81.24C280.385,71.835,273.791,63.097,264.386,61.764z M248,228.807
		c0,1.23-0.997,2.228-2.227,2.228H17.228c-1.23,0-2.228-0.997-2.228-2.228V99.262c0-1.23,0.997-2.228,2.228-2.228h228.545
		c1.23,0,2.227,0.997,2.227,2.228V228.807z"/>
	<path d="M173.226,156.911c-2.93-2.928-7.678-2.928-10.607,0l-16.726,16.726l-31.118-31.117c-2.93-2.928-7.678-2.928-10.607,0
		l-58.414,58.415c-2.929,2.93-2.929,7.678,0,10.607c1.465,1.464,3.385,2.196,5.304,2.196c1.919,0,3.839-0.732,5.304-2.196
		l53.11-53.112l25.814,25.814l-16.69,16.69c-2.929,2.93-2.929,7.678,0,10.607c2.93,2.928,7.678,2.928,10.607,0l38.72-38.721
		l38.72,38.721c1.465,1.464,3.385,2.196,5.304,2.196c1.919,0,3.839-0.732,5.304-2.196c2.929-2.93,2.929-7.678,0-10.607
		L173.226,156.911z"/>
	<path d="M195.744,156.737c11.53,0,20.91-9.381,20.91-20.911c0-11.529-9.38-20.909-20.91-20.909c-11.53,0-20.91,9.38-20.91,20.909
		C174.834,147.356,184.214,156.737,195.744,156.737z"/>
</g>
</svg>